<svg xmlns="http://www.w3.org/2000/svg" fill="none" height="66" viewBox="0 0 66 66" width="66"><path d="m28.1267 4.23225c1.1879-5.175299 8.5587-5.175287 9.7466.00001l3.7596 16.38014c.4287 1.8676 1.8871 3.326 3.7547 3.7547l16.3802 3.7596c5.1752 1.1879 5.1752 8.5587-.0001 9.7466l-16.3801 3.7596c-1.8676.4287-3.326 1.8871-3.7547 3.7547l-3.7596 16.3802c-1.1879 5.1752-8.5587 5.1752-9.7466-.0001l-3.7596-16.3801c-.4287-1.8676-1.8871-3.326-3.7547-3.7547l-16.38015-3.7596c-5.175299-1.1879-5.175287-8.5587.00001-9.7466l16.38014-3.7596c1.8676-.4287 3.326-1.8871 3.7547-3.7547z" fill="#fff"/></svg>
